# xmcd
#
# Track frame offsets: 
#        150
#        13139
#        23038
#        35165
#        47362
#        60116
#        70773
#        81617
#        91397
#        104458
#
# Disc length: 1566 seconds
#
# Revision: 1
# Processed by: cddbd v1.5.2PL0 Copyright (c) Steve Scherf et al.
# Submitted via: ExactAudioCopyFreeDBPlugin 1.0
#
DISCID=7a061c0a
DTITLE=Billie Jo Spears - With Love
DYEAR=1970
DGENRE=Country
TTITLE0=Your Old Love Letters
TTITLE1=Put A Little Love In Your Heart
TTITLE2=I Don't Believe I'll Fall In Love Today
TTITLE3=Daddy, I Love You
TTITLE4=Midnight Train
TTITLE5=Livin' In A House Full Of Love
TTITLE6=True Love
TTITLE7=Love Takes Good Care Of Me
TTITLE8=Meanwhile, Back In My Heart
TTITLE9=You And Your Sweet Love
EXTD=
EXTT0=
EXTT1=
EXTT2=
EXTT3=
EXTT4=
EXTT5=
EXTT6=
EXTT7=
EXTT8=
EXTT9=
PLAYORDER=
